<svg width="23" height="17" viewBox="0 0 23 17" fill="none" xmlns="http://www.w3.org/2000/svg">
<path fill-rule="evenodd" clip-rule="evenodd" d="M0.5625 2.42187C0.5625 1.34271 1.4375 0.46875 2.51562 0.46875H8.76562C9.84479 0.46875 10.7188 1.34375 10.7188 2.42187V6.32812C10.7188 7.40729 9.84375 8.28125 8.76562 8.28125H2.51562C1.99762 8.28125 1.50084 8.07548 1.13456 7.70919C0.768275 7.34291 0.5625 6.84613 0.5625 6.32812V2.42187ZM13.0625 3.98437C13.0625 2.90521 13.9375 2.03125 15.0156 2.03125H20.4844C21.5625 2.03125 22.4375 2.90625 22.4375 3.98437V12.5781C22.4375 13.6562 21.5625 14.5312 20.4844 14.5312H15.0156C14.4976 14.5312 14.0008 14.3255 13.6346 13.9592C13.2683 13.5929 13.0625 13.0961 13.0625 12.5781V3.98437ZM2.125 11.7969C2.125 10.7177 3 9.84375 4.07812 9.84375H9.54688C10.626 9.84375 11.5 10.7188 11.5 11.7969V14.1406C11.5 15.2187 10.625 16.0937 9.54688 16.0937H4.07812C3.56012 16.0937 3.06334 15.888 2.69706 15.5217C2.33078 15.1554 2.125 14.6586 2.125 14.1406V11.7969Z" fill="#003B39"/>
</svg>
