<svg width="17" height="20" viewBox="0 0 17 20" fill="none" xmlns="http://www.w3.org/2000/svg">
<path fill-rule="evenodd" clip-rule="evenodd" d="M8.01266 0.0937501H8.98637C10.5944 0.0937414 11.8681 0.0937238 12.8649 0.227748C13.8907 0.365665 14.7211 0.65627 15.376 1.31108C16.0307 1.96591 16.3213 2.79624 16.4593 3.82211C16.5933 4.81891 16.5933 6.09262 16.5933 7.70064V13.875C16.5933 13.9467 16.5817 14.0158 16.5605 14.0805C16.4681 14.4646 16.1223 14.75 15.7097 14.75C14.9848 14.75 14.3972 15.3377 14.3972 16.0625C14.3972 16.7873 14.9848 17.375 15.7097 17.375C16.193 17.375 16.5847 17.7667 16.5847 18.25C16.5847 18.7172 16.2187 19.0988 15.7577 19.1237C15.7455 19.1244 15.7331 19.1247 15.7208 19.1249L15.7097 19.125H3.43318C1.74731 19.125 0.402344 17.7418 0.402344 16.0625C0.402344 16.0134 0.403499 15.9647 0.405765 15.9161V7.70062C0.405748 6.09259 0.405739 4.81892 0.539763 3.82211C0.67768 2.79624 0.968285 1.96591 1.6231 1.31108C2.27792 0.65627 3.10826 0.365665 4.13412 0.227748C5.13092 0.0937238 6.40461 0.0937414 8.01266 0.0937501ZM3.43318 14.75H12.942C12.753 15.1478 12.6472 15.5928 12.6472 16.0625C12.6472 16.5322 12.753 16.9772 12.942 17.375H3.43318C2.73778 17.375 2.15234 16.7994 2.15234 16.0625C2.15234 15.3256 2.73778 14.75 3.43318 14.75ZM11.1245 5.78125C11.4869 5.78125 11.7808 5.48743 11.7808 5.125C11.7808 4.76257 11.4869 4.46875 11.1245 4.46875H5.87452C5.51208 4.46875 5.21827 4.76257 5.21827 5.125C5.21827 5.48743 5.51208 5.78125 5.87452 5.78125H11.1245ZM8.49952 9.28125C8.86194 9.28125 9.15577 8.98742 9.15577 8.625C9.15577 8.26258 8.86194 7.96875 8.49952 7.96875H5.87452C5.51208 7.96875 5.21827 8.26258 5.21827 8.625C5.21827 8.98742 5.51208 9.28125 5.87452 9.28125H8.49952Z" fill="#003B39"/>
</svg>
