<svg width="21" height="20" viewBox="0 0 21 20" fill="none" xmlns="http://www.w3.org/2000/svg">
<path d="M6.98438 9.5C6.98438 9.6036 6.94322 9.70296 6.86996 9.77621C6.79671 9.84947 6.69735 9.89062 6.59375 9.89062C6.49015 9.89062 6.39079 9.84947 6.31754 9.77621C6.24428 9.70296 6.20312 9.6036 6.20312 9.5C6.20312 9.3964 6.24428 9.29704 6.31754 9.22379C6.39079 9.15053 6.49015 9.10938 6.59375 9.10938C6.69735 9.10938 6.79671 9.15053 6.86996 9.22379C6.94322 9.29704 6.98438 9.3964 6.98438 9.5ZM6.98438 9.5H6.59375H6.98438ZM10.8906 9.5C10.8906 9.6036 10.8495 9.70296 10.7762 9.77621C10.703 9.84947 10.6036 9.89062 10.5 9.89062C10.3964 9.89062 10.297 9.84947 10.2238 9.77621C10.1505 9.70296 10.1094 9.6036 10.1094 9.5C10.1094 9.3964 10.1505 9.29704 10.2238 9.22379C10.297 9.15053 10.3964 9.10938 10.5 9.10938C10.6036 9.10938 10.703 9.15053 10.7762 9.22379C10.8495 9.29704 10.8906 9.3964 10.8906 9.5ZM10.8906 9.5H10.5H10.8906ZM14.7969 9.5C14.7969 9.6036 14.7557 9.70296 14.6825 9.77621C14.6092 9.84947 14.5098 9.89062 14.4062 9.89062C14.3026 9.89062 14.2033 9.84947 14.13 9.77621C14.0568 9.70296 14.0156 9.6036 14.0156 9.5C14.0156 9.3964 14.0568 9.29704 14.13 9.22379C14.2033 9.15053 14.3026 9.10938 14.4062 9.10938C14.5098 9.10938 14.6092 9.15053 14.6825 9.22379C14.7557 9.29704 14.7969 9.3964 14.7969 9.5ZM14.7969 9.5H14.4062H14.7969ZM19.875 9.5C19.875 14.2458 15.6771 18.0938 10.5 18.0938C9.60123 18.0948 8.70629 17.9768 7.83854 17.7427C6.61538 18.603 5.12326 18.9938 3.63542 18.8437C3.46999 18.8278 3.30528 18.8052 3.14167 18.776C3.65507 18.171 4.0057 17.445 4.16042 16.6667C4.25417 16.1906 4.02187 15.7281 3.67396 15.3896C2.09375 13.8521 1.125 11.7802 1.125 9.5C1.125 4.75417 5.32292 0.90625 10.5 0.90625C15.6771 0.90625 19.875 4.75417 19.875 9.5Z" fill="#003B39"/>
<path d="M6.98437 9.5C6.98437 9.6036 6.94322 9.70296 6.86996 9.77621C6.79671 9.84947 6.69735 9.89062 6.59375 9.89062C6.49015 9.89062 6.39079 9.84947 6.31754 9.77621C6.24428 9.70296 6.20312 9.6036 6.20312 9.5C6.20312 9.3964 6.24428 9.29704 6.31754 9.22379C6.39079 9.15053 6.49015 9.10937 6.59375 9.10937C6.69735 9.10937 6.79671 9.15053 6.86996 9.22379C6.94322 9.29704 6.98437 9.3964 6.98437 9.5ZM6.98437 9.5H6.59375M10.8906 9.5C10.8906 9.6036 10.8495 9.70296 10.7762 9.77621C10.703 9.84947 10.6036 9.89062 10.5 9.89062C10.3964 9.89062 10.297 9.84947 10.2238 9.77621C10.1505 9.70296 10.1094 9.6036 10.1094 9.5C10.1094 9.3964 10.1505 9.29704 10.2238 9.22379C10.297 9.15053 10.3964 9.10937 10.5 9.10937C10.6036 9.10937 10.703 9.15053 10.7762 9.22379C10.8495 9.29704 10.8906 9.3964 10.8906 9.5ZM10.8906 9.5H10.5M14.7969 9.5C14.7969 9.6036 14.7557 9.70296 14.6825 9.77621C14.6092 9.84947 14.5098 9.89062 14.4062 9.89062C14.3026 9.89062 14.2033 9.84947 14.13 9.77621C14.0568 9.70296 14.0156 9.6036 14.0156 9.5C14.0156 9.3964 14.0568 9.29704 14.13 9.22379C14.2033 9.15053 14.3026 9.10937 14.4062 9.10937C14.5098 9.10937 14.6092 9.15053 14.6825 9.22379C14.7557 9.29704 14.7969 9.3964 14.7969 9.5ZM14.7969 9.5H14.4062M19.875 9.5C19.875 14.2458 15.6771 18.0937 10.5 18.0937C9.60123 18.0948 8.70629 17.9768 7.83854 17.7427C6.61538 18.603 5.12326 18.9938 3.63542 18.8437C3.46999 18.8278 3.30528 18.8052 3.14167 18.776C3.65507 18.171 4.0057 17.445 4.16042 16.6667C4.25417 16.1906 4.02187 15.7281 3.67396 15.3896C2.09375 13.8521 1.125 11.7802 1.125 9.5C1.125 4.75417 5.32292 0.90625 10.5 0.90625C15.6771 0.90625 19.875 4.75417 19.875 9.5Z" stroke="white" stroke-width="1.5" stroke-linecap="round" stroke-linejoin="round"/>
</svg>
