<svg width="17" height="21" viewBox="0 0 17 21" fill="none" xmlns="http://www.w3.org/2000/svg">
<path d="M15.6875 4.03125H3.46875C3.0375 4.03125 2.75 3.74375 2.75 3.3125C2.75 2.88125 3.0375 2.59375 3.46875 2.59375H15.6875C16.1187 2.59375 16.4062 2.88125 16.4062 3.3125C16.4062 3.74375 16.1187 4.03125 15.6875 4.03125Z" fill="#003B39"/>
<path d="M15.6875 4.75H9.21875V14.0938L7.0625 13.375L4.90625 14.0938V4.75H3.46875C2.67812 4.75 2.03125 4.10313 2.03125 3.3125C2.03125 2.52187 2.67812 1.875 3.46875 1.875H15.6875C16.1187 1.875 16.4062 1.5875 16.4062 1.15625C16.4062 0.725 16.1187 0.4375 15.6875 0.4375H3.46875C1.8875 0.4375 0.59375 1.73125 0.59375 3.3125V17.6875C0.59375 19.2687 1.8875 20.5625 3.46875 20.5625H15.6875C16.1187 20.5625 16.4062 20.275 16.4062 19.8438V5.46875C16.4062 5.0375 16.1187 4.75 15.6875 4.75Z" fill="#003B39"/>
</svg>
