<svg width="26" height="26" viewBox="0 0 26 26" fill="none" xmlns="http://www.w3.org/2000/svg">
<path d="M5.61207 16.5712C4.24969 17.3697 0.677638 19.0002 2.85326 21.0406C3.91603 22.0372 5.09968 22.7501 6.58782 22.7501H15.0795C16.5676 22.7501 17.7513 22.0372 18.814 21.0406C20.9897 19.0002 17.4176 17.3697 16.0552 16.5712C12.8605 14.6986 8.80681 14.6986 5.61207 16.5712Z" fill="#003B39"/>
<path d="M15.1667 7.58333C15.1667 9.97657 13.2265 11.9167 10.8333 11.9167C8.4401 11.9167 6.5 9.97657 6.5 7.58333C6.5 5.1901 8.4401 3.25 10.8333 3.25C13.2265 3.25 15.1667 5.1901 15.1667 7.58333Z" fill="#003B39"/>
<path d="M21.2569 4.94615C21.4992 4.68374 21.6202 4.55255 21.7489 4.47602C22.0594 4.29137 22.4417 4.28563 22.7574 4.46088C22.8882 4.53351 23.013 4.66101 23.2626 4.91602C23.5122 5.17103 23.6371 5.29853 23.7082 5.43217C23.8797 5.75464 23.8742 6.14518 23.6934 6.46235C23.6184 6.5938 23.49 6.7175 23.2332 6.9649L20.177 9.90852C19.6902 10.3774 19.4468 10.6118 19.1426 10.7306C18.8384 10.8494 18.5041 10.8406 17.8352 10.8232L17.7442 10.8208C17.5407 10.8155 17.4388 10.8128 17.3797 10.7456C17.3205 10.6785 17.3286 10.5748 17.3447 10.3674L17.3535 10.2548C17.399 9.67102 17.4217 9.37916 17.5357 9.1168C17.6497 8.85442 17.8463 8.6414 18.2395 8.21533L21.2569 4.94615Z" fill="#003B39"/>
</svg>
