<svg width="98" height="98" viewBox="0 0 98 98" fill="none" xmlns="http://www.w3.org/2000/svg">
<path fill-rule="evenodd" clip-rule="evenodd" d="M0.25 49C0.25 22.075 22.075 0.25 49 0.25C75.925 0.25 97.75 22.075 97.75 49C97.75 75.925 75.925 97.75 49 97.75C22.075 97.75 0.25 75.925 0.25 49ZM67.05 39.93C67.35 39.5303 67.5671 39.0746 67.6884 38.5897C67.8098 38.1049 67.833 37.6007 67.7568 37.1068C67.6805 36.6128 67.5062 36.1391 67.2443 35.7135C66.9823 35.2878 66.6379 34.9189 66.2313 34.6283C65.8247 34.3376 65.3641 34.1312 64.8765 34.0211C64.389 33.9111 63.8844 33.8996 63.3924 33.9873C62.9004 34.0751 62.4308 34.2603 62.0114 34.5321C61.592 34.8039 61.2311 35.1567 60.95 35.57L44.77 58.22L36.65 50.1C35.9391 49.4376 34.9989 49.077 34.0274 49.0941C33.0559 49.1113 32.129 49.5048 31.4419 50.1919C30.7548 50.879 30.3613 51.8059 30.3441 52.7774C30.327 53.7489 30.6876 54.6891 31.35 55.4L42.6 66.65C42.9849 67.0347 43.449 67.3309 43.9599 67.5182C44.4709 67.7055 45.0165 67.7794 45.5588 67.7347C46.1012 67.6899 46.6273 67.5277 47.1006 67.2593C47.574 66.9908 47.9833 66.6225 48.3 66.18L67.05 39.93Z" fill="#00C43B"/>
</svg>
