<svg width="225" height="272" viewBox="0 0 225 272" fill="none" xmlns="http://www.w3.org/2000/svg">
<rect x="1" y="1" width="223" height="270" rx="8" stroke="white" stroke-width="2" stroke-dasharray="4 4"/>
<path d="M82.1016 116.07H80.8984C80.9089 116.128 80.9167 116.185 80.9219 116.242C80.9271 116.299 80.9323 116.352 80.9375 116.398C80.9375 117.31 80.6354 118.044 80.0312 118.602C79.4219 119.128 78.7135 119.391 77.9062 119.391H75.8828C74.8203 119.391 73.9609 118.979 73.3047 118.156C72.7422 117.422 72.4609 116.466 72.4609 115.289V112.641H74.1016V115.805C74.1016 116.055 74.1536 116.284 74.2578 116.492C74.362 116.695 74.5078 116.878 74.6953 117.039V117.031C74.8672 117.167 75.0781 117.271 75.3281 117.344C75.5833 117.422 75.8594 117.461 76.1562 117.461H77.8672C78.3151 117.461 78.6589 117.359 78.8984 117.156C79.0339 117.036 79.138 116.909 79.2109 116.773C79.2891 116.638 79.3281 116.49 79.3281 116.328C79.3281 116.234 78.9818 116.154 78.2891 116.086H78.2969C78.2135 116.081 78.0234 116.078 77.7266 116.078C77.4297 116.073 77.0599 116.07 76.6172 116.07L76.4766 114.141H82.1016V116.07ZM84.4297 109.844C84.4297 110.109 84.3359 110.336 84.1484 110.523C83.9557 110.701 83.7318 110.789 83.4766 110.789C83.3307 110.789 83.1979 110.768 83.0781 110.727C82.9635 110.68 82.8542 110.617 82.75 110.539C82.6458 110.451 82.5625 110.346 82.5 110.227C82.4427 110.107 82.4141 109.979 82.4141 109.844C82.4141 109.292 82.7396 109.016 83.3906 109.016C84.0833 109.016 84.4297 109.292 84.4297 109.844ZM87.0625 109.844C87.0625 109.979 87.0365 110.104 86.9844 110.219C86.9375 110.333 86.8698 110.435 86.7812 110.523C86.6979 110.607 86.599 110.672 86.4844 110.719C86.3698 110.766 86.2448 110.789 86.1094 110.789C85.9583 110.789 85.8203 110.768 85.6953 110.727C85.5755 110.68 85.4661 110.617 85.3672 110.539C85.263 110.451 85.1823 110.349 85.125 110.234C85.0677 110.115 85.0391 109.984 85.0391 109.844C85.0391 109.292 85.3672 109.016 86.0234 109.016C86.7161 109.016 87.0625 109.292 87.0625 109.844ZM88.125 116.07H87.8359C87.5911 116.07 87.3802 116.065 87.2031 116.055C87.0312 116.044 86.8854 116.026 86.7656 116C86.6562 115.948 86.5443 115.888 86.4297 115.82C86.3203 115.753 86.2057 115.667 86.0859 115.562C85.8672 115.734 85.6536 115.862 85.4453 115.945C85.237 116.029 85.0391 116.07 84.8516 116.07H81.8594V114.141H84.4453C84.7474 114.141 84.9557 114.089 85.0703 113.984C85.1901 113.875 85.25 113.69 85.25 113.43V111.312H86.8906V113.43C86.8906 113.737 86.9401 113.914 87.0391 113.961C87.1172 114.029 87.2448 114.076 87.4219 114.102C87.6042 114.128 87.8385 114.141 88.125 114.141V116.07ZM93.2188 108.008C93.2188 108.305 93.1198 108.552 92.9219 108.75C92.8177 108.849 92.7057 108.924 92.5859 108.977C92.4714 109.023 92.3385 109.047 92.1875 109.047C91.4219 109.047 91.0391 108.701 91.0391 108.008C91.0391 107.414 91.4036 107.117 92.1328 107.117C92.8568 107.117 93.2188 107.414 93.2188 108.008ZM92.6953 115.195C92.3516 115.388 91.974 115.549 91.5625 115.68C91.151 115.805 90.7656 115.896 90.4062 115.953C90.224 115.979 89.9219 116.003 89.5 116.023C89.0781 116.039 88.5365 116.055 87.875 116.07V114.141H89.0703C90.0599 114.141 90.9531 113.956 91.75 113.586C91.8125 113.565 92.0234 113.456 92.3828 113.258C92.7474 113.055 93.2292 112.781 93.8281 112.438C93.7552 112.391 93.6667 112.344 93.5625 112.297C93.4635 112.25 93.3542 112.211 93.2344 112.18L93.25 112.188C93.1719 112.177 92.8411 112.164 92.2578 112.148C91.6745 112.128 90.8359 112.104 89.7422 112.078L89.4766 110.195H92.9297C93.8672 110.195 94.5729 110.464 95.0469 111C95.5208 111.531 95.7604 112.344 95.7656 113.438L92.6953 115.195ZM99.1406 116.07H97.5469V107.023H99.1406V116.07ZM106.914 114.047C106.914 114.714 106.703 115.216 106.281 115.555C105.854 115.898 105.372 116.07 104.836 116.07H100.641L100.352 114.141H104.727C105.107 114.141 105.297 114.068 105.297 113.922C105.297 113.865 105.247 113.779 105.148 113.664V113.672C105.008 113.521 104.865 113.367 104.719 113.211C104.578 113.055 104.435 112.901 104.289 112.75C104.185 112.635 104.081 112.523 103.977 112.414C103.872 112.305 103.768 112.195 103.664 112.086V112.094C103.539 111.958 103.404 111.815 103.258 111.664C103.112 111.508 102.964 111.352 102.812 111.195C102.661 111.039 102.513 110.885 102.367 110.734C102.221 110.583 102.089 110.445 101.969 110.32L103.195 109.094L106.258 112.328C106.471 112.557 106.633 112.815 106.742 113.102C106.857 113.388 106.914 113.703 106.914 114.047ZM113.961 116.07C113.648 116.07 113.378 116.034 113.148 115.961C112.919 115.888 112.721 115.779 112.555 115.633C112.513 116.117 112.419 116.565 112.273 116.977C112.128 117.388 111.938 117.755 111.703 118.078C111.385 118.495 111.003 118.818 110.555 119.047C110.112 119.276 109.617 119.391 109.07 119.391H107.258L106.938 117.461H109C109.25 117.461 109.49 117.422 109.719 117.344C109.948 117.266 110.148 117.156 110.32 117.016C110.503 116.844 110.646 116.659 110.75 116.461C110.859 116.258 110.914 116.057 110.914 115.859V111.312H112.555V113.516C112.555 113.901 113.023 114.109 113.961 114.141V116.07ZM116.664 120.039C116.664 120.581 116.341 120.852 115.695 120.852C114.997 120.852 114.648 120.581 114.648 120.039C114.648 119.419 114.958 119.109 115.578 119.109C115.87 119.109 116.117 119.18 116.32 119.32C116.549 119.513 116.664 119.753 116.664 120.039ZM118.016 118.094C118.016 118.651 117.693 118.93 117.047 118.93C116.354 118.93 116.008 118.651 116.008 118.094C116.008 117.833 116.099 117.612 116.281 117.43C116.479 117.263 116.701 117.18 116.945 117.18C117.659 117.18 118.016 117.484 118.016 118.094ZM115.391 118.094C115.391 118.651 115.076 118.93 114.445 118.93C113.732 118.93 113.375 118.651 113.375 118.094C113.375 117.958 113.401 117.833 113.453 117.719C113.5 117.609 113.568 117.513 113.656 117.43C113.74 117.352 113.839 117.289 113.953 117.242C114.073 117.201 114.201 117.18 114.336 117.18C115.039 117.18 115.391 117.484 115.391 118.094ZM118.422 113.625C118.422 113.953 118.372 114.26 118.273 114.547C118.174 114.833 118.042 115.078 117.875 115.281C117.677 115.516 117.448 115.706 117.188 115.852C116.932 115.997 116.672 116.07 116.406 116.07H113.43V114.141H115.969C116.276 114.141 116.487 114.089 116.602 113.984C116.721 113.875 116.781 113.69 116.781 113.43V111.312H118.422V113.625ZM134.945 108.867C134.805 108.867 134.674 108.844 134.555 108.797C134.435 108.75 134.326 108.69 134.227 108.617H134.234C134.005 108.466 133.891 108.242 133.891 107.945C133.891 107.393 134.219 107.117 134.875 107.117C135.12 107.117 135.341 107.18 135.539 107.305C135.768 107.471 135.883 107.667 135.883 107.891C135.883 108.026 135.859 108.148 135.812 108.258C135.766 108.367 135.698 108.474 135.609 108.578C135.417 108.771 135.195 108.867 134.945 108.867ZM134.562 109.867C134.562 109.997 134.536 110.12 134.484 110.234C134.432 110.349 134.362 110.451 134.273 110.539C134.18 110.617 134.076 110.68 133.961 110.727C133.852 110.773 133.734 110.797 133.609 110.797C133.479 110.797 133.349 110.773 133.219 110.727C133.094 110.68 132.984 110.622 132.891 110.555C132.786 110.482 132.703 110.388 132.641 110.273C132.583 110.154 132.555 110.018 132.555 109.867C132.555 109.326 132.878 109.055 133.523 109.055C134.216 109.055 134.562 109.326 134.562 109.867ZM137.227 109.867C137.227 109.997 137.198 110.12 137.141 110.234C137.089 110.349 137.018 110.451 136.93 110.539C136.841 110.617 136.74 110.68 136.625 110.727C136.51 110.773 136.385 110.797 136.25 110.797C136.109 110.797 135.977 110.776 135.852 110.734C135.732 110.688 135.625 110.628 135.531 110.555C135.307 110.393 135.195 110.164 135.195 109.867C135.195 109.326 135.518 109.055 136.164 109.055C136.872 109.055 137.227 109.326 137.227 109.867ZM140.523 116.07C139.909 116.055 139.5 116.01 139.297 115.938L139.305 115.945C139.174 115.909 139.044 115.849 138.914 115.766C138.784 115.682 138.664 115.565 138.555 115.414C138.336 115.669 138.089 115.865 137.812 116C137.542 116.135 137.242 116.203 136.914 116.203C136.602 116.203 136.297 116.13 136 115.984C135.708 115.833 135.43 115.617 135.164 115.336C134.93 115.612 134.667 115.833 134.375 116C134.089 116.161 133.797 116.242 133.5 116.242C133.307 116.242 133.112 116.206 132.914 116.133C132.721 116.06 132.523 115.945 132.32 115.789C132.279 116.247 132.185 116.68 132.039 117.086C131.898 117.497 131.714 117.854 131.484 118.156C131.146 118.562 130.766 118.87 130.344 119.078C129.927 119.286 129.461 119.391 128.945 119.391H126.891C126.406 119.391 125.961 119.299 125.555 119.117C125.154 118.935 124.781 118.664 124.438 118.305C123.812 117.633 123.5 116.753 123.5 115.664V112.641H125.125V115.734C125.125 116.219 125.307 116.635 125.672 116.984C125.839 117.146 126.036 117.266 126.266 117.344C126.495 117.422 126.755 117.461 127.047 117.461H128.766C129.38 117.461 129.849 117.302 130.172 116.984C130.536 116.641 130.719 116.224 130.719 115.734V111.312H132.336V113.57C132.336 113.659 132.362 113.753 132.414 113.852C132.466 113.951 132.536 114.039 132.625 114.117C132.792 114.263 133.023 114.336 133.32 114.336C133.81 114.336 134.055 114.164 134.055 113.82V111.312H135.648V113.555C135.648 113.643 135.674 113.734 135.727 113.828C135.784 113.922 135.859 114.016 135.953 114.109V114.102C136.135 114.258 136.362 114.336 136.633 114.336C137.143 114.336 137.398 114.164 137.398 113.82V111.312H139V113.664C139 113.732 139.031 113.799 139.094 113.867C139.161 113.93 139.255 113.99 139.375 114.047L139.367 114.039C139.445 114.07 139.831 114.109 140.523 114.156V116.07ZM142.25 118.094C142.25 118.651 141.935 118.93 141.305 118.93C140.596 118.93 140.242 118.651 140.242 118.094C140.242 117.958 140.268 117.833 140.32 117.719C140.367 117.609 140.435 117.513 140.523 117.43C140.607 117.352 140.706 117.289 140.82 117.242C140.94 117.201 141.065 117.18 141.195 117.18C141.898 117.18 142.25 117.484 142.25 118.094ZM144.875 118.094C144.875 118.651 144.552 118.93 143.906 118.93C143.214 118.93 142.867 118.651 142.867 118.094C142.867 117.833 142.961 117.612 143.148 117.43C143.341 117.263 143.56 117.18 143.805 117.18C144.518 117.18 144.875 117.484 144.875 118.094ZM146.562 116.07H146.273C146.029 116.07 145.818 116.065 145.641 116.055C145.469 116.044 145.323 116.026 145.203 116C145.094 115.948 144.982 115.888 144.867 115.82C144.758 115.753 144.643 115.667 144.523 115.562C144.305 115.734 144.091 115.862 143.883 115.945C143.674 116.029 143.477 116.07 143.289 116.07H140.297V114.141H142.883C143.185 114.141 143.393 114.089 143.508 113.984C143.628 113.875 143.688 113.69 143.688 113.43V111.312H145.328V113.43C145.328 113.737 145.378 113.914 145.477 113.961C145.555 114.029 145.682 114.076 145.859 114.102C146.042 114.128 146.276 114.141 146.562 114.141V116.07ZM150.68 111.922C150.576 111.359 150.227 111.078 149.633 111.078C149.169 111.078 148.938 111.206 148.938 111.461C148.938 111.669 149.01 111.805 149.156 111.867C149.188 111.878 149.266 111.888 149.391 111.898C149.521 111.904 149.695 111.909 149.914 111.914L150.68 111.922ZM152.5 113.664C152.51 114.013 152.461 114.331 152.352 114.617C152.247 114.898 152.078 115.148 151.844 115.367C151.333 115.836 150.792 116.07 150.219 116.07H146.125V114.141H150.227C150.503 114.141 150.685 114.013 150.773 113.758C150.466 113.753 150.128 113.742 149.758 113.727C149.393 113.706 149.026 113.677 148.656 113.641C148.229 113.49 147.909 113.24 147.695 112.891C147.482 112.536 147.375 112.089 147.375 111.547C147.375 110.792 147.594 110.208 148.031 109.797C148.495 109.344 149.057 109.117 149.719 109.117C149.984 109.117 150.242 109.159 150.492 109.242C150.747 109.326 150.99 109.438 151.219 109.578C151.562 109.807 151.836 110.138 152.039 110.57C152.247 110.997 152.37 111.484 152.406 112.031L152.5 113.664ZM150.945 107.594C150.945 107.88 150.844 108.122 150.641 108.32C150.536 108.419 150.422 108.495 150.297 108.547C150.177 108.594 150.042 108.617 149.891 108.617C149.172 108.617 148.812 108.276 148.812 107.594C148.812 106.984 149.159 106.68 149.852 106.68C150.581 106.68 150.945 106.984 150.945 107.594Z" fill="white"/>
<path d="M113 144V152M113 152V160M113 152H121M113 152H105" stroke="white" stroke-width="2" stroke-linecap="round" stroke-linejoin="round"/>
</svg>
