<svg width="80" height="80" viewBox="0 0 80 80" fill="none" xmlns="http://www.w3.org/2000/svg">
<rect width="80" height="80" rx="8" fill="#D9D9D9"/>
<path d="M35 41.25L38.75 45L45 36.25M55 40C55 41.9698 54.612 43.9204 53.8582 45.7403C53.1044 47.5601 51.9995 49.2137 50.6066 50.6066C49.2137 51.9995 47.5601 53.1044 45.7403 53.8582C43.9204 54.612 41.9698 55 40 55C38.0302 55 36.0796 54.612 34.2597 53.8582C32.4399 53.1044 30.7863 51.9995 29.3934 50.6066C28.0005 49.2137 26.8956 47.5601 26.1418 45.7403C25.388 43.9204 25 41.9698 25 40C25 36.0218 26.5804 32.2064 29.3934 29.3934C32.2064 26.5804 36.0218 25 40 25C43.9782 25 47.7936 26.5804 50.6066 29.3934C53.4196 32.2064 55 36.0218 55 40Z" stroke="#01B4AF" stroke-width="2" stroke-linecap="round" stroke-linejoin="round"/>
</svg>
