<svg width="457" height="55" viewBox="0 0 457 55" fill="none" xmlns="http://www.w3.org/2000/svg">
<line x1="410" y1="27.5" x2="236" y2="27.5" stroke="#CC6E00" stroke-width="5"/>
<line x1="218" y1="27.5" x2="44" y2="27.5" stroke="#D9D9D9" stroke-width="5"/>
<rect x="402" width="55" height="55" rx="16" fill="#D47300"/>
<path d="M440.397 17.474C441.087 16.775 442.206 16.775 442.895 17.474C443.577 18.1644 443.585 19.2786 442.92 19.9795L428.807 36.6624C428.794 36.6796 428.779 36.696 428.764 36.7116C428.074 37.4106 426.956 37.4106 426.266 36.7116L417.678 28.0089C416.988 27.3099 416.988 26.1766 417.678 25.4776C418.367 24.7786 419.486 24.7786 420.176 25.4776L427.462 32.8606L440.35 17.5275C440.365 17.5087 440.381 17.4909 440.397 17.474Z" fill="white"/>
<rect x="201" width="55" height="55" rx="16" fill="#E48900"/>
<path d="M233.688 24.2031C233.688 25.4115 233.229 26.3802 232.312 27.1094C231.354 27.8698 230.38 28.25 229.391 28.25C228.724 28.25 228 28.0312 227.219 27.5938V29.3281C227.219 29.7031 227.219 30.0781 227.219 30.4531C227.229 30.8281 227.234 31.2135 227.234 31.6094C227.234 31.9948 227.234 32.4271 227.234 32.9062C227.245 33.3854 227.25 33.8698 227.25 34.3594C227.25 34.849 227.25 35.3281 227.25 35.7969C227.25 36.2656 227.25 36.6771 227.25 37.0312H223.984V28.7656C223.984 25.3594 223.526 22.3542 222.609 19.75L225.766 18.6719L226.969 23.5312C227.073 23.9167 227.255 24.2083 227.516 24.4062C227.786 24.5938 228.156 24.6875 228.625 24.6875C228.938 24.6875 229.214 24.6354 229.453 24.5312C229.693 24.4271 229.885 24.2865 230.031 24.1094V24.1406C230.115 23.9948 230.182 23.8646 230.234 23.75C230.286 23.625 230.302 23.526 230.281 23.4531L229.859 19.5938C229.995 19.5521 230.177 19.5 230.406 19.4375C230.635 19.3646 230.885 19.2865 231.156 19.2031C231.438 19.1094 231.724 19.0156 232.016 18.9219C232.318 18.8281 232.609 18.7344 232.891 18.6406C233.151 20.026 233.349 21.1823 233.484 22.1094C233.62 23.026 233.688 23.724 233.688 24.2031Z" fill="white"/>
<rect width="55" height="55" rx="16" fill="#D9D9D9"/>
<path d="M23 29.25L26.75 33L33 24.25M43 28C43 29.9698 42.612 31.9204 41.8582 33.7403C41.1044 35.5601 39.9995 37.2137 38.6066 38.6066C37.2137 39.9995 35.5601 41.1044 33.7403 41.8582C31.9204 42.612 29.9698 43 28 43C26.0302 43 24.0796 42.612 22.2597 41.8582C20.4399 41.1044 18.7863 39.9995 17.3934 38.6066C16.0005 37.2137 14.8956 35.5601 14.1418 33.7403C13.388 31.9204 13 29.9698 13 28C13 24.0218 14.5804 20.2064 17.3934 17.3934C20.2064 14.5804 24.0218 13 28 13C31.9782 13 35.7936 14.5804 38.6066 17.3934C41.4196 20.2064 43 24.0218 43 28Z" stroke="#9A9A9A" stroke-width="2" stroke-linecap="round" stroke-linejoin="round"/>
</svg>
