<svg width="457" height="55" viewBox="0 0 457 55" fill="none" xmlns="http://www.w3.org/2000/svg">
<line x1="410" y1="27.5" x2="47" y2="27.5" stroke="#D9D9D9" stroke-width="5"/>
<rect x="402" width="55" height="55" rx="16" fill="#E48900"/>
<path d="M431.906 37.0312H428.75V28.3438C428.75 27.0729 428.625 25.7292 428.375 24.3125C428.135 22.8854 427.766 21.3646 427.266 19.75L430.469 18.6719L431.5 22.75C431.51 22.7812 431.516 22.8281 431.516 22.8906C431.526 22.9531 431.536 23.0104 431.547 23.0625C431.568 23.1042 431.573 23.151 431.562 23.2031C431.562 23.2448 431.562 23.2917 431.562 23.3438C431.562 23.4167 431.568 23.4635 431.578 23.4844V23.4219C431.589 23.4635 431.594 23.5156 431.594 23.5781C431.604 23.6406 431.615 23.7031 431.625 23.7656C431.708 24.5052 431.776 25.2708 431.828 26.0625C431.88 26.8542 431.906 27.6146 431.906 28.3438V37.0312Z" fill="white"/>
<rect x="201" width="55" height="55" rx="16" fill="#D9D9D9"/>
<path d="M233.688 24.2031C233.688 25.4115 233.229 26.3802 232.312 27.1094C231.354 27.8698 230.38 28.25 229.391 28.25C228.724 28.25 228 28.0312 227.219 27.5938V29.3281C227.219 29.7031 227.219 30.0781 227.219 30.4531C227.229 30.8281 227.234 31.2135 227.234 31.6094C227.234 31.9948 227.234 32.4271 227.234 32.9062C227.245 33.3854 227.25 33.8698 227.25 34.3594C227.25 34.849 227.25 35.3281 227.25 35.7969C227.25 36.2656 227.25 36.6771 227.25 37.0312H223.984V28.7656C223.984 25.3594 223.526 22.3542 222.609 19.75L225.766 18.6719L226.969 23.5312C227.073 23.9167 227.255 24.2083 227.516 24.4062C227.786 24.5938 228.156 24.6875 228.625 24.6875C228.938 24.6875 229.214 24.6354 229.453 24.5312C229.693 24.4271 229.885 24.2865 230.031 24.1094V24.1406C230.115 23.9948 230.182 23.8646 230.234 23.75C230.286 23.625 230.302 23.526 230.281 23.4531L229.859 19.5938C229.995 19.5521 230.177 19.5 230.406 19.4375C230.635 19.3646 230.885 19.2865 231.156 19.2031C231.438 19.1094 231.724 19.0156 232.016 18.9219C232.318 18.8281 232.609 18.7344 232.891 18.6406C233.151 20.026 233.349 21.1823 233.484 22.1094C233.62 23.026 233.688 23.724 233.688 24.2031Z" fill="#9A9A9A"/>
<rect width="55" height="55" rx="16" fill="#D9D9D9"/>
<path d="M23 29.25L26.75 33L33 24.25M43 28C43 29.9698 42.612 31.9204 41.8582 33.7403C41.1044 35.5601 39.9995 37.2137 38.6066 38.6066C37.2137 39.9995 35.5601 41.1044 33.7403 41.8582C31.9204 42.612 29.9698 43 28 43C26.0302 43 24.0796 42.612 22.2597 41.8582C20.4399 41.1044 18.7863 39.9995 17.3934 38.6066C16.0005 37.2137 14.8956 35.5601 14.1418 33.7403C13.388 31.9204 13 29.9698 13 28C13 24.0218 14.5804 20.2064 17.3934 17.3934C20.2064 14.5804 24.0218 13 28 13C31.9782 13 35.7936 14.5804 38.6066 17.3934C41.4196 20.2064 43 24.0218 43 28Z" stroke="#9A9A9A" stroke-width="2" stroke-linecap="round" stroke-linejoin="round"/>
</svg>
