<svg width="457" height="55" viewBox="0 0 457 55" fill="none" xmlns="http://www.w3.org/2000/svg">
<line x1="410" y1="27.5" x2="236" y2="27.5" stroke="#CC6E00" stroke-width="5"/>
<line x1="218" y1="27.5" x2="44" y2="27.5" stroke="#D47300" stroke-width="5"/>
<rect x="402" width="55" height="55" rx="16" fill="#D47300"/>
<path d="M440.397 17.474C441.087 16.775 442.206 16.775 442.895 17.474C443.577 18.1644 443.585 19.2786 442.92 19.9795L428.807 36.6624C428.794 36.6796 428.779 36.696 428.764 36.7116C428.074 37.4106 426.956 37.4106 426.266 36.7116L417.678 28.0089C416.988 27.3099 416.988 26.1766 417.678 25.4776C418.367 24.7786 419.486 24.7786 420.176 25.4776L427.462 32.8606L440.35 17.5275C440.365 17.5087 440.381 17.4909 440.397 17.474Z" fill="white"/>
<rect x="201" width="55" height="55" rx="16" fill="#D47300"/>
<path d="M239.397 16.474C240.087 15.775 241.206 15.775 241.895 16.474C242.577 17.1644 242.585 18.2786 241.92 18.9795L227.807 35.6624C227.794 35.6796 227.779 35.696 227.764 35.7116C227.074 36.4106 225.956 36.4106 225.266 35.7116L216.678 27.0089C215.988 26.3099 215.988 25.1766 216.678 24.4776C217.367 23.7786 218.486 23.7786 219.176 24.4776L226.462 31.8606L239.35 16.5275C239.365 16.5087 239.381 16.4909 239.397 16.474Z" fill="white"/>
<rect width="55" height="55" rx="16" fill="#D9D9D9"/>
<path d="M23 29.25L26.75 33L33 24.25M43 28C43 29.9698 42.612 31.9204 41.8582 33.7403C41.1044 35.5601 39.9995 37.2137 38.6066 38.6066C37.2137 39.9995 35.5601 41.1044 33.7403 41.8582C31.9204 42.612 29.9698 43 28 43C26.0302 43 24.0796 42.612 22.2597 41.8582C20.4399 41.1044 18.7863 39.9995 17.3934 38.6066C16.0005 37.2137 14.8956 35.5601 14.1418 33.7403C13.388 31.9204 13 29.9698 13 28C13 24.0218 14.5804 20.2064 17.3934 17.3934C20.2064 14.5804 24.0218 13 28 13C31.9782 13 35.7936 14.5804 38.6066 17.3934C41.4196 20.2064 43 24.0218 43 28Z" stroke="#9A9A9A" stroke-width="2" stroke-linecap="round" stroke-linejoin="round"/>
</svg>
