<svg width="457" height="55" viewBox="0 0 457 55" fill="none" xmlns="http://www.w3.org/2000/svg">
<line x1="410" y1="27.5" x2="236" y2="27.5" stroke="#CC6E00" stroke-width="5"/>
<line x1="218" y1="27.5" x2="44" y2="27.5" stroke="#D47300" stroke-width="5"/>
<rect x="402" width="55" height="55" rx="16" fill="#D47300"/>
<path d="M440.397 17.4745C441.087 16.7754 442.206 16.7754 442.895 17.4745C443.577 18.1649 443.585 19.2791 442.92 19.98L428.807 36.6629C428.794 36.6801 428.779 36.6965 428.764 36.7121C428.074 37.4111 426.956 37.4111 426.266 36.7121L417.678 28.0094C416.988 27.3104 416.988 26.1771 417.678 25.4781C418.367 24.7791 419.486 24.7791 420.176 25.4781L427.462 32.861L440.35 17.528C440.365 17.5092 440.381 17.4913 440.397 17.4745Z" fill="white"/>
<rect x="201" width="55" height="55" rx="16" fill="#D47300"/>
<path d="M239.397 16.4745C240.087 15.7754 241.206 15.7754 241.895 16.4745C242.577 17.1649 242.585 18.2791 241.92 18.98L227.807 35.6629C227.794 35.6801 227.779 35.6965 227.764 35.7121C227.074 36.4111 225.956 36.4111 225.266 35.7121L216.678 27.0094C215.988 26.3104 215.988 25.1771 216.678 24.4781C217.367 23.7791 218.486 23.7791 219.176 24.4781L226.462 31.861L239.35 16.528C239.365 16.5092 239.381 16.4913 239.397 16.4745Z" fill="white"/>
<rect width="55" height="55" rx="16" fill="#D47300"/>
<path d="M22 28.25L25.75 32L32 23.25M42 27C42 28.9698 41.612 30.9204 40.8582 32.7403C40.1044 34.5601 38.9995 36.2137 37.6066 37.6066C36.2137 38.9995 34.5601 40.1044 32.7403 40.8582C30.9204 41.612 28.9698 42 27 42C25.0302 42 23.0796 41.612 21.2597 40.8582C19.4399 40.1044 17.7863 38.9995 16.3934 37.6066C15.0005 36.2137 13.8956 34.5601 13.1418 32.7403C12.388 30.9204 12 28.9698 12 27C12 23.0218 13.5804 19.2064 16.3934 16.3934C19.2064 13.5804 23.0218 12 27 12C30.9782 12 34.7936 13.5804 37.6066 16.3934C40.4196 19.2064 42 23.0218 42 27Z" stroke="white" stroke-width="2" stroke-linecap="round" stroke-linejoin="round"/>
</svg>
